<svg xmlns="http://www.w3.org/2000/svg" viewBox="0 0 1920 1080" preserveAspectRatio="xMidYMid slice" xmlns:c2pa="http://c2pa.org/manifest"><metadata><c2pa:manifest>AAAWgmp1bWIAAAAeanVtZGMycGEAEQAQgAAAqgA4m3EDYzJwYQAAABZcanVtYgAAAEdqdW1kYzJtYQARABCAAACqADibcQN1cm46YzJwYToyMjNiNjJiMS01NGIxLTQ2MzMtYjc3Zi1jNWE5NmNjNWZmZmUAAAADl2p1bWIAAAApanVtZGMyYXMAEQAQgAAAqgA4m3EDYzJwYS5hc3NlcnRpb25zAAAAALxqdW1iAAAARGp1bWRjYm9yABEAEIAAAKoAOJtxE2MycGEuaW5ncmVkaWVudC52MwAAAAAYYzJzaN+wlK/fX4Ay6S8LDCl1XNsAAABwY2JvcqNpZGM6Zm9ybWF0bWltYWdlL3N2Zyt4bWxqaW5zdGFuY2VJRHgseG1wOmlpZDo5MThhMjRmNS0zNmQ5LTQ0Y2UtYjVhZi03MTI0ODI1NzBkODJscmVsYXRpb25zaGlwaHBhcmVudE9mAAAB4mp1bWIAAABBanVtZGNib3IAEQAQgAAAqgA4m3ETYzJwYS5hY3Rpb25zLnYyAAAAABhjMnNoYKidZg9Fpnww0cLBLoEdPQAAAZljYm9yomdhY3Rpb25zgqJmYWN0aW9ua2MycGEub3BlbmVkanBhcmFtZXRlcnOha2luZ3JlZGllbnRzgaJjdXJseC1zZWxmI2p1bWJmPWMycGEuYXNzZXJ0aW9ucy9jMnBhLmluZ3JlZGllbnQudjNkaGFzaFggfAuX4yM7uuUVSILfrFQaXulouvhI98YeyK2mWCz8iL6kZmFjdGlvbngdY29tLmFudGhyb3BpYy5jbGF1ZGUucHJvdmlkZWRqcGFyYW1ldGVyc6F4H2NvbS5hbnRocm9waWMub3JpZ2luLWNvbmZpZGVuY2VndW5rbm93bmtkZXNjcmlwdGlvbnhmQ2xhdWRlIHByb3ZpZGVkIHRoaXMgZmlsZSBhdCB0aGUgcmVxdWVzdCBvZiBhIHVzZXIgYW5kIG1heSBoYXZlIGNyZWF0ZWQgb3IgbW9kaWZpZWQgdGhlIGZpbGUgY29udGVudHMubXNvZnR3YXJlQWdlbnShZG5hbWVmQ2xhdWRlcmFsbEFjdGlvbnNJbmNsdWRlZPUAAADIanVtYgAAAEBqdW1kY2JvcgARABCAAACqADibcRNjMnBhLmhhc2guZGF0YQAAAAAYYzJzaN12lhOqz7ijoNctliLqQ64AAACAY2JvcqVjYWxnZnNoYTI1NmNwYWRNAAAAAAAAAAAAAAAAAGRoYXNoWCBFCz6Xcu9CRqpLi7ilpqn4XDiAtQmkVrCxh42YinQuU2RuYW1lbmp1bWJmIG1hbmlmZXN0amV4Y2x1c2lvbnOBomVzdGFydBikZmxlbmd0aBkeBAAAAj5qdW1iAAAAJ2p1bWRjMmNsABEAEIAAAKoAOJtxA2MycGEuY2xhaW0udjIAAAACD2Nib3KlY2FsZ2ZzaGEyNTZpc2lnbmF0dXJleE1zZWxmI2p1bWJmPS9jMnBhL3VybjpjMnBhOjIyM2I2MmIxLTU0YjEtNDYzMy1iNzdmLWM1YTk2Y2M1ZmZmZS9jMnBhLnNpZ25hdHVyZWppbnN0YW5jZUlEeCx4bXA6aWlkOjI5N2Q2MjZmLWM0NTMtNDZhZC1iZmNmLTNmMDU0MmRkMzA3ZXJjcmVhdGVkX2Fzc2VydGlvbnODomN1cmx4LXNlbGYjanVtYmY9YzJwYS5hc3NlcnRpb25zL2MycGEuaW5ncmVkaWVudC52M2RoYXNoWCB8C5fjIzu65RVIgt+sVBpe6Wi6+Ej3xh7IraZYLPyIvqJjdXJseCpzZWxmI2p1bWJmPWMycGEuYXNzZXJ0aW9ucy9jMnBhLmFjdGlvbnMudjJkaGFzaFgg5uFawyiC4jwe8mX/fTYO5nnSgl2rxI7iSSJoFycXJyOiY3VybHgpc2VsZiNqdW1iZj1jMnBhLmFzc2VydGlvbnMvYzJwYS5oYXNoLmRhdGFkaGFzaFggv5fuPv2hFE9Czd3Y55diwTa3O3A0w/ouGbvRipOGcAl0Y2xhaW1fZ2VuZXJhdG9yX2luZm+jZG5hbWVvQW50aHJvcGljIEZpbGVzZ3ZlcnNpb25lMS4wLjBrc3BlY1ZlcnNpb25lMi40LjAAABA4anVtYgAAAChqdW1kYzJjcwARABCAAACqADibcQNjMnBhLnNpZ25hdHVyZQAAABAIY2JvctKEWQISogEmGCFZAgowggIGMIIBjaADAgECAhRA5aAK7sI50L64g/oGQgU9Z1UTADAKBggqhkjOPQQDAzBJMRcwFQYDVQQKEw5BbnRocm9waWMsIFBCQzEuMCwGA1UEAxMlQW50aHJvcGljIENvbnRlbnQgQ3JlZGVudGlhbHMgUm9vdCBDQTAeFw0yNjA4MDcxODQzNTZaFw0yODA4MDYxOTQzNTZaMEQxFzAVBgNVBAoTDkFudGhyb3BpYywgUEJDMSkwJwYDVQQDEyBBbnRocm9waWMgQ2xhdWRlIENvbnRlbnQgU2lnbmluZzBZMBMGByqGSM49AgEGCCqGSM49AwEHA0IABJh6CmvLUBgFFNU0vUKlOVtE6djd17L5SuwX0LemFisBM3dkd/3cyjxFA3Qo5S46fX0/ihY0VZ7mfb9KF703t5OjWDBWMA4GA1UdDwEB/wQEAwIHgDAVBgNVHSUEDjAMBgorBgEEAYPoXgIBMAwGA1UdEwEB/wQCMAAwHwYDVR0jBBgwFoAUzlHiBIFOZFsj+OPEz5o+nMHXXMIwCgYIKoZIzj0EAwMDZwAwZAIwMXMdFJ4BetLLVY7ORuE9noqbbAZOZn/aArXyTwFAZfKrPzxF2vPoJNf1+UCdg1XGAjBwX1zd9WGqYkqmL5SFqw1QySjr1zJfpJM9+1rdDwSPLMOPOjKuiXjoU/pUUeG9RwmhY3BhZFkNngAAAAAAAAAAAAAAAAAAAAAAAAAAAAAAAAAAAAAAAAAAAAAAAAAAAAAAAAAAAAAAAAAAAAAAAAAAAAAAAAAAAAAAAAAAAAAAAAAAAAAAAAAAAAAAAAAAAAAAAAAAAAAAAAAAAAAAAAAAAAAAAAAAAAAAAAAAAAAAAAAAAAAAAAAAAAAAAAAAAAAAAAAAAAAAAAAAAAAAAAAAAAAAAAAAAAAAAAAAAAAAAAAAAAAAAAAAAAAAAAAAAAAAAAAAAAAAAAAAAAAAAAAAAAAAAAAAAAAAAAAAAAAAAAAAAAAAAAAAAAAAAAAAAAAAAAAAAAAAAAAAAAAAAAAAAAAAAAAAAAAAAAAAAAAAAAAAAAAAAAAAAAAAAAAAAAAAAAAAAAAAAAAAAAAAAAAAAAAAAAAAAAAAAAAAAAAAAAAAAAAAAAAAAAAAAAAAAAAAAAAAAAAAAAAAAAAAAAAAAAAAAAAAAAAAAAAAAAAAAAAAAAAAAAAAAAAAAAAAAAAAAAAAAAAAAAAAAAAAAAAAAAAAAAAAAAAAAAAAAAAAAAAAAAAAAAAAAAAAAAAAAAAAAAAAAAAAAAAAAAAAAAAAAAAAAAAAAAAAAAAAAAAAAAAAAAAAAAAAAAAAAAAAAAAAAAAAAAAAAAAAAAAAAAAAAAAAAAAAAAAAAAAAAAAAAAAAAAAAAAAAAAAAAAAAAAAAAAAAAAAAAAAAAAAAAAAAAAAAAAAAAAAAAAAAAAAAAAAAAAAAAAAAAAAAAAAAAAAAAAAAAAAAAAAAAAAAAAAAAAAAAAAAAAAAAAAAAAAAAAAAAAAAAAAAAAAAAAAAAAAAAAAAAAAAAAAAAAAAAAAAAAAAAAAAAAAAAAAAAAAAAAAAAAAAAAAAAAAAAAAAAAAAAAAAAAAAAAAAAAAAAAAAAAAAAAAAAAAAAAAAAAAAAAAAAAAAAAAAAAAAAAAAAAAAAAAAAAAAAAAAAAAAAAAAAAAAAAAAAAAAAAAAAAAAAAAAAAAAAAAAAAAAAAAAAAAAAAAAAAAAAAAAAAAAAAAAAAAAAAAAAAAAAAAAAAAAAAAAAAAAAAAAAAAAAAAAAAAAAAAAAAAAAAAAAAAAAAAAAAAAAAAAAAAAAAAAAAAAAAAAAAAAAAAAAAAAAAAAAAAAAAAAAAAAAAAAAAAAAAAAAAAAAAAAAAAAAAAAAAAAAAAAAAAAAAAAAAAAAAAAAAAAAAAAAAAAAAAAAAAAAAAAAAAAAAAAAAAAAAAAAAAAAAAAAAAAAAAAAAAAAAAAAAAAAAAAAAAAAAAAAAAAAAAAAAAAAAAAAAAAAAAAAAAAAAAAAAAAAAAAAAAAAAAAAAAAAAAAAAAAAAAAAAAAAAAAAAAAAAAAAAAAAAAAAAAAAAAAAAAAAAAAAAAAAAAAAAAAAAAAAAAAAAAAAAAAAAAAAAAAAAAAAAAAAAAAAAAAAAAAAAAAAAAAAAAAAAAAAAAAAAAAAAAAAAAAAAAAAAAAAAAAAAAAAAAAAAAAAAAAAAAAAAAAAAAAAAAAAAAAAAAAAAAAAAAAAAAAAAAAAAAAAAAAAAAAAAAAAAAAAAAAAAAAAAAAAAAAAAAAAAAAAAAAAAAAAAAAAAAAAAAAAAAAAAAAAAAAAAAAAAAAAAAAAAAAAAAAAAAAAAAAAAAAAAAAAAAAAAAAAAAAAAAAAAAAAAAAAAAAAAAAAAAAAAAAAAAAAAAAAAAAAAAAAAAAAAAAAAAAAAAAAAAAAAAAAAAAAAAAAAAAAAAAAAAAAAAAAAAAAAAAAAAAAAAAAAAAAAAAAAAAAAAAAAAAAAAAAAAAAAAAAAAAAAAAAAAAAAAAAAAAAAAAAAAAAAAAAAAAAAAAAAAAAAAAAAAAAAAAAAAAAAAAAAAAAAAAAAAAAAAAAAAAAAAAAAAAAAAAAAAAAAAAAAAAAAAAAAAAAAAAAAAAAAAAAAAAAAAAAAAAAAAAAAAAAAAAAAAAAAAAAAAAAAAAAAAAAAAAAAAAAAAAAAAAAAAAAAAAAAAAAAAAAAAAAAAAAAAAAAAAAAAAAAAAAAAAAAAAAAAAAAAAAAAAAAAAAAAAAAAAAAAAAAAAAAAAAAAAAAAAAAAAAAAAAAAAAAAAAAAAAAAAAAAAAAAAAAAAAAAAAAAAAAAAAAAAAAAAAAAAAAAAAAAAAAAAAAAAAAAAAAAAAAAAAAAAAAAAAAAAAAAAAAAAAAAAAAAAAAAAAAAAAAAAAAAAAAAAAAAAAAAAAAAAAAAAAAAAAAAAAAAAAAAAAAAAAAAAAAAAAAAAAAAAAAAAAAAAAAAAAAAAAAAAAAAAAAAAAAAAAAAAAAAAAAAAAAAAAAAAAAAAAAAAAAAAAAAAAAAAAAAAAAAAAAAAAAAAAAAAAAAAAAAAAAAAAAAAAAAAAAAAAAAAAAAAAAAAAAAAAAAAAAAAAAAAAAAAAAAAAAAAAAAAAAAAAAAAAAAAAAAAAAAAAAAAAAAAAAAAAAAAAAAAAAAAAAAAAAAAAAAAAAAAAAAAAAAAAAAAAAAAAAAAAAAAAAAAAAAAAAAAAAAAAAAAAAAAAAAAAAAAAAAAAAAAAAAAAAAAAAAAAAAAAAAAAAAAAAAAAAAAAAAAAAAAAAAAAAAAAAAAAAAAAAAAAAAAAAAAAAAAAAAAAAAAAAAAAAAAAAAAAAAAAAAAAAAAAAAAAAAAAAAAAAAAAAAAAAAAAAAAAAAAAAAAAAAAAAAAAAAAAAAAAAAAAAAAAAAAAAAAAAAAAAAAAAAAAAAAAAAAAAAAAAAAAAAAAAAAAAAAAAAAAAAAAAAAAAAAAAAAAAAAAAAAAAAAAAAAAAAAAAAAAAAAAAAAAAAAAAAAAAAAAAAAAAAAAAAAAAAAAAAAAAAAAAAAAAAAAAAAAAAAAAAAAAAAAAAAAAAAAAAAAAAAAAAAAAAAAAAAAAAAAAAAAAAAAAAAAAAAAAAAAAAAAAAAAAAAAAAAAAAAAAAAAAAAAAAAAAAAAAAAAAAAAAAAAAAAAAAAAAAAAAAAAAAAAAAAAAAAAAAAAAAAAAAAAAAAAAAAAAAAAAAAAAAAAAAAAAAAAAAAAAAAAAAAAAAAAAAAAAAAAAAAAAAAAAAAAAAAAAAAAAAAAAAAAAAAAAAAAAAAAAAAAAAAAAAAAAAAAAAAAAAAAAAAAAAAAAAAAAAAAAAAAAAAAAAAAAAAAAAAAAAAAAAAAAAAAAAAAAAAAAAAAAAAAAAAAAAAAAAAAAAAAAAAAAAAAAAAAAAAAAAAAAAAAAAAAAAAAAAAAAAAAAAAAAAAAAAAAAAAAAAAAAAAAAAAAAAAAAAAAAAAAAAAAAAAAAAAAAAAAAAAAAAAAAAAAAAAAAAAAAAAAAAAAAAAAAAAAAAAAAAAAAAAAAAAAAAAAAAAAAAAAAAAAAAAAAAAAAAAAAAAAAAAAAAAAAAAAAAAAAAAAAAAAAAAAAAAAAAAAAAAAAAAAAAAAAAAAAAAAAAAAAAAAAAAAAAAAAAAAAAAAAAAAAAAAAAAAAAAAAAAAAAAAAAAAAAAAAAAAAAAAAAAAAAAAAAAAAAAAAAAAAAAAAAAAAAAAAAAAAAAAAAAAAAAAAAAAAAAAAAAAAAAAAAAAAAAAAAAAAAAAAAAAAAAAAAAAAAAAAAAAAAAAAAAAAAAAAAAAAAAAAAAAAAAAAAAAAAAAAAAAAAAAAAAAAAAAAAAAAAAAAAAAAAAAAAAAAAAAAAAAAAAAAAAAAAAAAAAAAAAAAAAAAAAAAAAAAAAAAAAAAAAAAAAAAAAAAAAAAAAAAAAAAAAAAAAAAAAAAAAAAAAAAAAAAAAAAAAAAAAAAAAAAAAAAAAAAAAAAAAAAAAAAAAAAAAAAAAAAAAAAAAAAAAAAAAAAAAAAAAAAAAAAAAAAAAAAAAAAAAAAAAAAAAAAAAAAAAAAAAAAAAAAAAAAAAAAAAAAAAAAAAAAAAAAAAAAAAAAAAAAAAAAAAAAAAAAAAAAAAAAAAAAAAAAAAAAAAAAAAAAAAAAAAAAAAAAAAAAAAAAAAAAAAAAAAAAAAAAAAAAAAAAAAAAAAAAAAAAAAAAAAAAAAAAAAAAAAAAAAAAAAAAAAAAAAAAAAAAAAAAAAAAAAAAAAAAAAAAAAAAAAAAAAAAAAAAAAAAAAAAAAAAAAAAAAAAAAAAAAAAAAAAAAAAAAAAAAAAAAAAAAAAAAAAAAAAAAAAAAAAAAAAAAAAAAAAAAAAAAAAAAAAAAAAAAAAAAAAAAAAAAAAAAAAAAAAAAAAAAAAAAAAAAAAAAAAAAAAAAAAAAAAAAAAAAAAAAAAAAAAAAAAAAAAAAAAAAAAAAAAAAAAAAAAAAAAAAAAAAAAAAAAAAAAAAAAAAAAAAAAAAAAAAAAAAAAAAAAAAAAAAAAAAAAAAAAAAAAAAAAAAAAAAAAAAAAAAAAAAAAAAAAAAAAAAAAAAAAAAAAAAAAAAAAAAAAAAAAAAAAAAAAAAAAAAAAAAAAAAAAAAAAAAAAAAAAAAAAAAAAAAAAAAAAAAAAAAAAAAAAAAAAAAAAAAAAAAAAAAAAAAAAAAAAAAAAAAAAAAAAAAAAAAAAAAAAAAAAAAAAAAAAAAAAAAAAAAAAAAAAAAAAAAAAAAAAAAAAAAAAAAAAAAAAAAAAAAAAAAAAAAAAAAAAAAAAAAAAAAAAAAAAAAAPZYQPVUhirRcK4OYEzzpHcwfTZKaoKF7aHrEcpVZZuI8OkFqUvMSX2iJsMUK6ISKqfA/35sJMJSZbq+s+yjgSimjHk=</c2pa:manifest></metadata><defs><linearGradient id="bg" x1="0" y1="0" x2="1" y2="1"><stop offset="0" stop-color="#29263f"/><stop offset="1" stop-color="#12101d"/></linearGradient><radialGradient id="g0" cx="0.75" cy="0.4" r=".55"><stop offset="0" stop-color="#e4b9a7" stop-opacity=".30"/><stop offset="1" stop-color="#e4b9a7" stop-opacity="0"/></radialGradient><radialGradient id="g1" cx="0.2" cy="0.8" r=".55"><stop offset="0" stop-color="#7fa8ff" stop-opacity=".30"/><stop offset="1" stop-color="#7fa8ff" stop-opacity="0"/></radialGradient><filter id="glow"><feGaussianBlur stdDeviation="3" result="b"/><feMerge><feMergeNode in="b"/><feMergeNode in="SourceGraphic"/></feMerge></filter><pattern id="grid" width="48" height="48" patternUnits="userSpaceOnUse"><path d="M48 0H0V48" fill="none" stroke="#bdbbcf" stroke-opacity=".07"/></pattern></defs><rect width="1920" height="1080" fill="url(#bg)"/><rect width="1920" height="1080" fill="url(#g0)"/><rect width="1920" height="1080" fill="url(#g1)"/><rect width="1920" height="1080" fill="url(#grid)"/><path d="M984 216 L984 72 L840 72 L720 72 L672 72" fill="none" stroke="#bdbbcf" stroke-opacity=".35" stroke-width="1.6"/><circle cx="672" cy="72" r="5" fill="#1a1829" stroke="#bdbbcf" stroke-width="2" filter="url(#glow)"/><circle cx="984" cy="216" r="3" fill="#bdbbcf" fill-opacity=".8"/><path d="M1296 72 L1128 72 L1128 -72 L1128 -144 L1032 -144 L888 -144" fill="none" stroke="#7fa8ff" stroke-opacity=".35" stroke-width="1.6"/><circle cx="888" cy="-144" r="5" fill="#1a1829" stroke="#7fa8ff" stroke-width="2" filter="url(#glow)"/><circle cx="1296" cy="72" r="3" fill="#7fa8ff" fill-opacity=".8"/><path d="M1704 1032 L1608 1032 L1464 1032 L1344 1032" fill="none" stroke="#bdbbcf" stroke-opacity=".35" stroke-width="1.6"/><circle cx="1344" cy="1032" r="5" fill="#1a1829" stroke="#bdbbcf" stroke-width="2" filter="url(#glow)"/><circle cx="1704" cy="1032" r="3" fill="#bdbbcf" fill-opacity=".8"/><path d="M1632 648 L1728 648 L1560 648 L1560 504 L1656 504" fill="none" stroke="#bdbbcf" stroke-opacity=".35" stroke-width="1.6"/><circle cx="1656" cy="504" r="5" fill="#1a1829" stroke="#bdbbcf" stroke-width="2" filter="url(#glow)"/><circle cx="1632" cy="648" r="3" fill="#bdbbcf" fill-opacity=".8"/><path d="M1368 432 L1368 288 L1440 288 L1440 336 L1440 192 L1440 288" fill="none" stroke="#bdbbcf" stroke-opacity=".35" stroke-width="1.6"/><circle cx="1440" cy="288" r="5" fill="#1a1829" stroke="#bdbbcf" stroke-width="2" filter="url(#glow)"/><circle cx="1368" cy="432" r="3" fill="#bdbbcf" fill-opacity=".8"/><path d="M1056 912 L1056 960 L1056 1080 L1056 1032 L1056 1176" fill="none" stroke="#bdbbcf" stroke-opacity=".35" stroke-width="1.6"/><circle cx="1056" cy="1176" r="5" fill="#1a1829" stroke="#bdbbcf" stroke-width="2" filter="url(#glow)"/><circle cx="1056" cy="912" r="3" fill="#bdbbcf" fill-opacity=".8"/><path d="M1368 432 L1416 432 L1416 504 L1416 552 L1488 552 L1488 672" fill="none" stroke="#7fa8ff" stroke-opacity=".35" stroke-width="1.6"/><circle cx="1488" cy="672" r="5" fill="#1a1829" stroke="#7fa8ff" stroke-width="2" filter="url(#glow)"/><circle cx="1368" cy="432" r="3" fill="#7fa8ff" fill-opacity=".8"/><path d="M240 240 L312 240 L312 360 L312 432 L240 432" fill="none" stroke="#e4b9a7" stroke-opacity=".35" stroke-width="1.6"/><circle cx="240" cy="432" r="5" fill="#1a1829" stroke="#e4b9a7" stroke-width="2" filter="url(#glow)"/><circle cx="240" cy="240" r="3" fill="#e4b9a7" fill-opacity=".8"/><path d="M696 0 L696 -96 L576 -96 L576 -24 L576 -144" fill="none" stroke="#bdbbcf" stroke-opacity=".35" stroke-width="1.6"/><circle cx="576" cy="-144" r="5" fill="#1a1829" stroke="#bdbbcf" stroke-width="2" filter="url(#glow)"/><circle cx="696" cy="0" r="3" fill="#bdbbcf" fill-opacity=".8"/><path d="M1704 600 L1584 600 L1584 528 L1464 528 L1608 528" fill="none" stroke="#e4b9a7" stroke-opacity=".35" stroke-width="1.6"/><circle cx="1608" cy="528" r="5" fill="#1a1829" stroke="#e4b9a7" stroke-width="2" filter="url(#glow)"/><circle cx="1704" cy="600" r="3" fill="#e4b9a7" fill-opacity=".8"/><path d="M312 0 L216 0 L216 -72 L216 -168 L216 -48 L336 -48" fill="none" stroke="#7fa8ff" stroke-opacity=".35" stroke-width="1.6"/><circle cx="336" cy="-48" r="5" fill="#1a1829" stroke="#7fa8ff" stroke-width="2" filter="url(#glow)"/><circle cx="312" cy="0" r="3" fill="#7fa8ff" fill-opacity=".8"/><path d="M1464 456 L1632 456 L1488 456 L1560 456" fill="none" stroke="#bdbbcf" stroke-opacity=".35" stroke-width="1.6"/><circle cx="1560" cy="456" r="5" fill="#1a1829" stroke="#bdbbcf" stroke-width="2" filter="url(#glow)"/><circle cx="1464" cy="456" r="3" fill="#bdbbcf" fill-opacity=".8"/><path d="M1656 24 L1488 24 L1488 96 L1344 96 L1344 168 L1344 96" fill="none" stroke="#7fa8ff" stroke-opacity=".35" stroke-width="1.6"/><circle cx="1344" cy="96" r="5" fill="#1a1829" stroke="#7fa8ff" stroke-width="2" filter="url(#glow)"/><circle cx="1656" cy="24" r="3" fill="#7fa8ff" fill-opacity=".8"/><path d="M696 288 L648 288 L648 384 L768 384 L768 480 L696 480" fill="none" stroke="#7fa8ff" stroke-opacity=".35" stroke-width="1.6"/><circle cx="696" cy="480" r="5" fill="#1a1829" stroke="#7fa8ff" stroke-width="2" filter="url(#glow)"/><circle cx="696" cy="288" r="3" fill="#7fa8ff" fill-opacity=".8"/><path d="M600 504 L480 504 L480 552 L480 432" fill="none" stroke="#bdbbcf" stroke-opacity=".35" stroke-width="1.6"/><circle cx="480" cy="432" r="5" fill="#1a1829" stroke="#bdbbcf" stroke-width="2" filter="url(#glow)"/><circle cx="600" cy="504" r="3" fill="#bdbbcf" fill-opacity=".8"/><path d="M600 720 L648 720 L648 840 L480 840" fill="none" stroke="#e4b9a7" stroke-opacity=".35" stroke-width="1.6"/><circle cx="480" cy="840" r="5" fill="#1a1829" stroke="#e4b9a7" stroke-width="2" filter="url(#glow)"/><circle cx="600" cy="720" r="3" fill="#e4b9a7" fill-opacity=".8"/><path d="M504 192 L672 192 L840 192 L840 48" fill="none" stroke="#bdbbcf" stroke-opacity=".35" stroke-width="1.6"/><circle cx="840" cy="48" r="5" fill="#1a1829" stroke="#bdbbcf" stroke-width="2" filter="url(#glow)"/><circle cx="504" cy="192" r="3" fill="#bdbbcf" fill-opacity=".8"/><path d="M384 24 L384 -120 L384 -240 L384 -312" fill="none" stroke="#e4b9a7" stroke-opacity=".35" stroke-width="1.6"/><circle cx="384" cy="-312" r="5" fill="#1a1829" stroke="#e4b9a7" stroke-width="2" filter="url(#glow)"/><circle cx="384" cy="24" r="3" fill="#e4b9a7" fill-opacity=".8"/><path d="M768 312 L768 408 L768 360 L768 480 L768 624" fill="none" stroke="#e4b9a7" stroke-opacity=".35" stroke-width="1.6"/><circle cx="768" cy="624" r="5" fill="#1a1829" stroke="#e4b9a7" stroke-width="2" filter="url(#glow)"/><circle cx="768" cy="312" r="3" fill="#e4b9a7" fill-opacity=".8"/><path d="M1632 216 L1632 288 L1632 216 L1488 216 L1536 216 L1536 144" fill="none" stroke="#e4b9a7" stroke-opacity=".35" stroke-width="1.6"/><circle cx="1536" cy="144" r="5" fill="#1a1829" stroke="#e4b9a7" stroke-width="2" filter="url(#glow)"/><circle cx="1632" cy="216" r="3" fill="#e4b9a7" fill-opacity=".8"/><path d="M840 48 L840 0 L672 0 L816 0" fill="none" stroke="#e4b9a7" stroke-opacity=".35" stroke-width="1.6"/><circle cx="816" cy="0" r="5" fill="#1a1829" stroke="#e4b9a7" stroke-width="2" filter="url(#glow)"/><circle cx="840" cy="48" r="3" fill="#e4b9a7" fill-opacity=".8"/><path d="M1584 384 L1584 264 L1464 264 L1296 264 L1224 264 L1224 192" fill="none" stroke="#bdbbcf" stroke-opacity=".35" stroke-width="1.6"/><circle cx="1224" cy="192" r="5" fill="#1a1829" stroke="#bdbbcf" stroke-width="2" filter="url(#glow)"/><circle cx="1584" cy="384" r="3" fill="#bdbbcf" fill-opacity=".8"/><path d="M1104 216 L1104 288 L1104 168 L1104 96 L1248 96" fill="none" stroke="#7fa8ff" stroke-opacity=".35" stroke-width="1.6"/><circle cx="1248" cy="96" r="5" fill="#1a1829" stroke="#7fa8ff" stroke-width="2" filter="url(#glow)"/><circle cx="1104" cy="216" r="3" fill="#7fa8ff" fill-opacity=".8"/><path d="M1032 624 L864 624 L1008 624 L888 624" fill="none" stroke="#7fa8ff" stroke-opacity=".35" stroke-width="1.6"/><circle cx="888" cy="624" r="5" fill="#1a1829" stroke="#7fa8ff" stroke-width="2" filter="url(#glow)"/><circle cx="1032" cy="624" r="3" fill="#7fa8ff" fill-opacity=".8"/><path d="M1584 936 L1584 888 L1584 840 L1632 840 L1632 744" fill="none" stroke="#e4b9a7" stroke-opacity=".35" stroke-width="1.6"/><circle cx="1632" cy="744" r="5" fill="#1a1829" stroke="#e4b9a7" stroke-width="2" filter="url(#glow)"/><circle cx="1584" cy="936" r="3" fill="#e4b9a7" fill-opacity=".8"/><path d="M1296 1032 L1464 1032 L1512 1032 L1512 912 L1512 960" fill="none" stroke="#bdbbcf" stroke-opacity=".35" stroke-width="1.6"/><circle cx="1512" cy="960" r="5" fill="#1a1829" stroke="#bdbbcf" stroke-width="2" filter="url(#glow)"/><circle cx="1296" cy="1032" r="3" fill="#bdbbcf" fill-opacity=".8"/><path d="M264 384 L264 336 L144 336 L240 336" fill="none" stroke="#bdbbcf" stroke-opacity=".35" stroke-width="1.6"/><circle cx="240" cy="336" r="5" fill="#1a1829" stroke="#bdbbcf" stroke-width="2" filter="url(#glow)"/><circle cx="264" cy="384" r="3" fill="#bdbbcf" fill-opacity=".8"/><path d="M384 48 L384 -24 L312 -24 L312 120 L312 240 L312 144" fill="none" stroke="#7fa8ff" stroke-opacity=".35" stroke-width="1.6"/><circle cx="312" cy="144" r="5" fill="#1a1829" stroke="#7fa8ff" stroke-width="2" filter="url(#glow)"/><circle cx="384" cy="48" r="3" fill="#7fa8ff" fill-opacity=".8"/><path d="M48 384 L-96 384 L-48 384 L-48 504" fill="none" stroke="#bdbbcf" stroke-opacity=".35" stroke-width="1.6"/><circle cx="-48" cy="504" r="5" fill="#1a1829" stroke="#bdbbcf" stroke-width="2" filter="url(#glow)"/><circle cx="48" cy="384" r="3" fill="#bdbbcf" fill-opacity=".8"/><path d="M1200 768 L1200 672 L1080 672 L1080 600 L1200 600" fill="none" stroke="#e4b9a7" stroke-opacity=".35" stroke-width="1.6"/><circle cx="1200" cy="600" r="5" fill="#1a1829" stroke="#e4b9a7" stroke-width="2" filter="url(#glow)"/><circle cx="1200" cy="768" r="3" fill="#e4b9a7" fill-opacity=".8"/><path d="M168 120 L168 264 L216 264 L120 264 L216 264 L216 336" fill="none" stroke="#e4b9a7" stroke-opacity=".35" stroke-width="1.6"/><circle cx="216" cy="336" r="5" fill="#1a1829" stroke="#e4b9a7" stroke-width="2" filter="url(#glow)"/><circle cx="168" cy="120" r="3" fill="#e4b9a7" fill-opacity=".8"/><path d="M936 312 L1056 312 L1200 312 L1200 168 L1200 72" fill="none" stroke="#e4b9a7" stroke-opacity=".35" stroke-width="1.6"/><circle cx="1200" cy="72" r="5" fill="#1a1829" stroke="#e4b9a7" stroke-width="2" filter="url(#glow)"/><circle cx="936" cy="312" r="3" fill="#e4b9a7" fill-opacity=".8"/><path d="M432 600 L336 600 L288 600 L288 456 L456 456 L456 360" fill="none" stroke="#bdbbcf" stroke-opacity=".35" stroke-width="1.6"/><circle cx="456" cy="360" r="5" fill="#1a1829" stroke="#bdbbcf" stroke-width="2" filter="url(#glow)"/><circle cx="432" cy="600" r="3" fill="#bdbbcf" fill-opacity=".8"/><path d="M1896 984 L2064 984 L2064 840 L2064 696" fill="none" stroke="#bdbbcf" stroke-opacity=".35" stroke-width="1.6"/><circle cx="2064" cy="696" r="5" fill="#1a1829" stroke="#bdbbcf" stroke-width="2" filter="url(#glow)"/><circle cx="1896" cy="984" r="3" fill="#bdbbcf" fill-opacity=".8"/><circle cx="1380" cy="500" r="140" fill="none" stroke="#e4b9a7" stroke-opacity="0.50" stroke-width="1.5"/><circle cx="1380" cy="500" r="210" fill="none" stroke="#e4b9a7" stroke-opacity="0.43" stroke-width="1.5" stroke-dasharray="4 10"/><circle cx="1380" cy="500" r="290" fill="none" stroke="#e4b9a7" stroke-opacity="0.36" stroke-width="1.5"/><circle cx="1380" cy="500" r="380" fill="none" stroke="#e4b9a7" stroke-opacity="0.29" stroke-width="1.5" stroke-dasharray="4 10"/><circle cx="1380" cy="500" r="480" fill="none" stroke="#e4b9a7" stroke-opacity="0.22" stroke-width="1.5"/><g transform="translate(1380 500)"></g><rect x="1295.0" y="415.0" width="170" height="170" rx="12" fill="#1a1829" stroke="#e4b9a7" stroke-width="2.5" filter="url(#glow)"/><rect x="1333.25" y="453.25" width="93.50000000000001" height="93.50000000000001" rx="6" fill="none" stroke="#e4b9a7" stroke-opacity=".7" stroke-width="2"/><text x="1380" y="510.2" text-anchor="middle" font-family="Arial,sans-serif" font-weight="700" font-size="34.0" fill="#e4b9a7">AI</text><line x1="1309.1666666666667" y1="415.0" x2="1309.1666666666667" y2="391.2" stroke="#e4b9a7" stroke-width="3" stroke-opacity=".8"/><line x1="1309.1666666666667" y1="585.0" x2="1309.1666666666667" y2="608.8" stroke="#e4b9a7" stroke-width="3" stroke-opacity=".8"/><line x1="1295.0" y1="429.1666666666667" x2="1271.2" y2="429.1666666666667" stroke="#e4b9a7" stroke-width="3" stroke-opacity=".8"/><line x1="1465.0" y1="429.1666666666667" x2="1488.8" y2="429.1666666666667" stroke="#e4b9a7" stroke-width="3" stroke-opacity=".8"/><line x1="1337.5" y1="415.0" x2="1337.5" y2="391.2" stroke="#e4b9a7" stroke-width="3" stroke-opacity=".8"/><line x1="1337.5" y1="585.0" x2="1337.5" y2="608.8" stroke="#e4b9a7" stroke-width="3" stroke-opacity=".8"/><line x1="1295.0" y1="457.5" x2="1271.2" y2="457.5" stroke="#e4b9a7" stroke-width="3" stroke-opacity=".8"/><line x1="1465.0" y1="457.5" x2="1488.8" y2="457.5" stroke="#e4b9a7" stroke-width="3" stroke-opacity=".8"/><line x1="1365.8333333333333" y1="415.0" x2="1365.8333333333333" y2="391.2" stroke="#e4b9a7" stroke-width="3" stroke-opacity=".8"/><line x1="1365.8333333333333" y1="585.0" x2="1365.8333333333333" y2="608.8" stroke="#e4b9a7" stroke-width="3" stroke-opacity=".8"/><line x1="1295.0" y1="485.8333333333333" x2="1271.2" y2="485.8333333333333" stroke="#e4b9a7" stroke-width="3" stroke-opacity=".8"/><line x1="1465.0" y1="485.8333333333333" x2="1488.8" y2="485.8333333333333" stroke="#e4b9a7" stroke-width="3" stroke-opacity=".8"/><line x1="1394.1666666666667" y1="415.0" x2="1394.1666666666667" y2="391.2" stroke="#e4b9a7" stroke-width="3" stroke-opacity=".8"/><line x1="1394.1666666666667" y1="585.0" x2="1394.1666666666667" y2="608.8" stroke="#e4b9a7" stroke-width="3" stroke-opacity=".8"/><line x1="1295.0" y1="514.1666666666666" x2="1271.2" y2="514.1666666666666" stroke="#e4b9a7" stroke-width="3" stroke-opacity=".8"/><line x1="1465.0" y1="514.1666666666666" x2="1488.8" y2="514.1666666666666" stroke="#e4b9a7" stroke-width="3" stroke-opacity=".8"/><line x1="1422.5" y1="415.0" x2="1422.5" y2="391.2" stroke="#e4b9a7" stroke-width="3" stroke-opacity=".8"/><line x1="1422.5" y1="585.0" x2="1422.5" y2="608.8" stroke="#e4b9a7" stroke-width="3" stroke-opacity=".8"/><line x1="1295.0" y1="542.5" x2="1271.2" y2="542.5" stroke="#e4b9a7" stroke-width="3" stroke-opacity=".8"/><line x1="1465.0" y1="542.5" x2="1488.8" y2="542.5" stroke="#e4b9a7" stroke-width="3" stroke-opacity=".8"/><line x1="1450.8333333333333" y1="415.0" x2="1450.8333333333333" y2="391.2" stroke="#e4b9a7" stroke-width="3" stroke-opacity=".8"/><line x1="1450.8333333333333" y1="585.0" x2="1450.8333333333333" y2="608.8" stroke="#e4b9a7" stroke-width="3" stroke-opacity=".8"/><line x1="1295.0" y1="570.8333333333334" x2="1271.2" y2="570.8333333333334" stroke="#e4b9a7" stroke-width="3" stroke-opacity=".8"/><line x1="1465.0" y1="570.8333333333334" x2="1488.8" y2="570.8333333333334" stroke="#e4b9a7" stroke-width="3" stroke-opacity=".8"/><g><rect x="1010" y="170" width="300" height="190" rx="10" fill="#1a1829" fill-opacity=".72" stroke="#e4b9a7" stroke-opacity=".55" stroke-width="1.5"/><circle cx="1026" cy="186" r="4" fill="#e4b9a7"/><circle cx="1040" cy="186" r="4" fill="#e4b9a7" fill-opacity=".5"/><line x1="1010" y1="200" x2="1310" y2="200" stroke="#e4b9a7" stroke-opacity=".25"/><rect x="1033.0" y="301" width="24.5" height="45" fill="#e4b9a7" fill-opacity=".75"/><rect x="1065.5" y="286" width="24.5" height="60" fill="#e4b9a7" fill-opacity=".75"/><rect x="1098.0" y="255" width="24.5" height="91" fill="#7fa8ff" fill-opacity=".75"/><rect x="1130.5" y="258" width="24.5" height="88" fill="#7fa8ff" fill-opacity=".75"/><rect x="1163.0" y="292" width="24.5" height="54" fill="#e4b9a7" fill-opacity=".75"/><rect x="1195.5" y="256" width="24.5" height="90" fill="#e4b9a7" fill-opacity=".75"/><rect x="1228.0" y="269" width="24.5" height="77" fill="#7fa8ff" fill-opacity=".75"/><rect x="1260.5" y="241" width="24.5" height="105" fill="#e4b9a7" fill-opacity=".75"/></g><g><rect x="1560" y="130" width="280" height="170" rx="10" fill="#1a1829" fill-opacity=".72" stroke="#7fa8ff" stroke-opacity=".55" stroke-width="1.5"/><circle cx="1576" cy="146" r="4" fill="#7fa8ff"/><circle cx="1590" cy="146" r="4" fill="#7fa8ff" fill-opacity=".5"/><line x1="1560" y1="160" x2="1840" y2="160" stroke="#7fa8ff" stroke-opacity=".25"/><polyline points="1576,265 1604,261 1631,262 1659,226 1686,251 1714,178 1741,187 1769,233 1796,240 1824,195" fill="none" stroke="#7fa8ff" stroke-width="2.5"/><circle cx="1576" cy="265" r="3.5" fill="#1a1829" stroke="#7fa8ff" stroke-width="2"/><circle cx="1604" cy="261" r="3.5" fill="#1a1829" stroke="#7fa8ff" stroke-width="2"/><circle cx="1631" cy="262" r="3.5" fill="#1a1829" stroke="#7fa8ff" stroke-width="2"/><circle cx="1659" cy="226" r="3.5" fill="#1a1829" stroke="#7fa8ff" stroke-width="2"/><circle cx="1686" cy="251" r="3.5" fill="#1a1829" stroke="#7fa8ff" stroke-width="2"/><circle cx="1714" cy="178" r="3.5" fill="#1a1829" stroke="#7fa8ff" stroke-width="2"/><circle cx="1741" cy="187" r="3.5" fill="#1a1829" stroke="#7fa8ff" stroke-width="2"/><circle cx="1769" cy="233" r="3.5" fill="#1a1829" stroke="#7fa8ff" stroke-width="2"/><circle cx="1796" cy="240" r="3.5" fill="#1a1829" stroke="#7fa8ff" stroke-width="2"/><circle cx="1824" cy="195" r="3.5" fill="#1a1829" stroke="#7fa8ff" stroke-width="2"/></g><g><rect x="1560" y="700" width="290" height="200" rx="10" fill="#1a1829" fill-opacity=".72" stroke="#e4b9a7" stroke-opacity=".55" stroke-width="1.5"/><circle cx="1576" cy="716" r="4" fill="#e4b9a7"/><circle cx="1590" cy="716" r="4" fill="#e4b9a7" fill-opacity=".5"/><line x1="1560" y1="730" x2="1850" y2="730" stroke="#e4b9a7" stroke-opacity=".25"/><rect x="1576" y="748" width="105" height="6" rx="3" fill="#7fa8ff" fill-opacity=".55"/><rect x="1612" y="765" width="88" height="6" rx="3" fill="#bdbbcf" fill-opacity=".55"/><rect x="1576" y="782" width="192" height="6" rx="3" fill="#7fa8ff" fill-opacity=".55"/><rect x="1576" y="799" width="121" height="6" rx="3" fill="#bdbbcf" fill-opacity=".55"/><rect x="1612" y="816" width="193" height="6" rx="3" fill="#7fa8ff" fill-opacity=".55"/><rect x="1576" y="833" width="131" height="6" rx="3" fill="#bdbbcf" fill-opacity=".55"/><rect x="1576" y="850" width="171" height="6" rx="3" fill="#bdbbcf" fill-opacity=".55"/><rect x="1576" y="867" width="88" height="6" rx="3" fill="#e4b9a7" fill-opacity=".55"/><rect x="1576" y="884" width="149" height="6" rx="3" fill="#e4b9a7" fill-opacity=".55"/></g><g><rect x="1060" y="760" width="260" height="200" rx="10" fill="#1a1829" fill-opacity=".72" stroke="#e4b9a7" stroke-opacity=".55" stroke-width="1.5"/><circle cx="1076" cy="776" r="4" fill="#e4b9a7"/><circle cx="1090" cy="776" r="4" fill="#e4b9a7" fill-opacity=".5"/><line x1="1060" y1="790" x2="1320" y2="790" stroke="#e4b9a7" stroke-opacity=".25"/><circle cx="1190.0" cy="872.0" r="60.0" fill="none" stroke="#bdbbcf" stroke-opacity=".2" stroke-width="14"/><circle cx="1190.0" cy="872.0" r="60.0" fill="none" stroke="#e4b9a7" stroke-width="14" stroke-dasharray="256 999" transform="rotate(-90 1190.0 872.0)"/><circle cx="1190.0" cy="872.0" r="60.0" fill="none" stroke="#7fa8ff" stroke-width="14" stroke-dasharray="75 999" transform="rotate(154.8 1190.0 872.0)"/></g><text x="1520" y="640" font-family="Arial" font-size="13" letter-spacing="4" fill="#e4b9a7" fill-opacity=".7">PATENT · RESEARCH · MARKET</text></svg>